<svg width="960" height="846" viewBox="0 0 960 846" fill="none" xmlns="http://www.w3.org/2000/svg">
<g opacity="0.73">
<path d="M930.106 268.13L959.7 251.546V244.892L930.106 261.576L881.148 233.869V178.356L930.106 150.749L959.7 167.333V160.679L930.106 143.996L875.189 175.079V237.245L930.106 268.13Z" fill="#006FB6" fill-opacity="0.6"/>
<path d="M688.889 0L701.6 9.63282L694.649 65.3443L643.207 86.6954L598.42 52.6329L604.775 0H599.016L592.163 55.1156L642.314 93.349L700.11 69.4159L707.757 7.15013L698.323 0H688.889Z" fill="#006FB6" fill-opacity="0.6"/>
<path d="M881.148 178.058L883.035 175.178L698.72 64.5498L696.933 67.529L881.148 178.058Z" fill="#006FB6" fill-opacity="0.6"/>
<path d="M912.628 499.318L953.94 482.634L959.7 444.301V438.144L925.836 411.729L884.425 428.313L877.871 472.008L912.628 499.318ZM888 431.391L925.042 416.396L956.125 440.627L950.266 479.754L913.324 494.65L882.34 470.518L888 431.391Z" fill="#006FB6" fill-opacity="0.6"/>
<path d="M931.298 263.562H928.716L923.155 414.311L925.737 414.41L931.298 263.562Z" fill="#006FB6" fill-opacity="0.6"/>
<path d="M759.695 320.167L721.461 297.227L682.136 318.181L680.944 362.075L719.177 384.916L758.602 364.061L759.695 320.167ZM721.362 301.994L755.524 322.352L754.531 361.578L719.376 380.248L685.314 359.989L686.307 320.664L721.362 301.994Z" fill="#006FB6" fill-opacity="0.6"/>
<path d="M882.935 236.054L881.545 233.968L756.219 319.571L757.609 321.557L882.935 236.054Z" fill="#006FB6" fill-opacity="0.6"/>
<path d="M904.286 745.203L959.7 739.94V733.485L907.464 738.45L870.919 686.909L897.037 629.609L959.501 623.75L959.7 624.048V617.096L892.568 623.452L863.372 687.605L904.286 745.203Z" fill="#006FB6" fill-opacity="0.6"/>
<path d="M794.452 510.341L814.314 468.731L788.395 430.696L742.515 434.172L722.653 475.683L748.572 513.817L794.452 510.341ZM809.448 469.128L791.672 506.269L750.757 509.348L727.519 475.285L745.295 438.144L786.21 435.066L809.448 469.128Z" fill="#006FB6" fill-opacity="0.6"/>
<path d="M895.051 627.822L897.037 626.133L794.651 506.567L792.665 508.255L895.051 627.822Z" fill="#006FB6" fill-opacity="0.6"/>
<path d="M866.947 806.575L843.808 803.397L829.309 821.372L837.85 842.723L860.889 846L875.487 827.827L866.947 806.575ZM844.702 805.681L865.358 808.561L873.004 827.628L859.995 843.815L839.339 840.935L831.693 821.968L844.702 805.681Z" fill="#006FB6" fill-opacity="0.6"/>
<path d="M908.656 741.131L907.464 740.436L865.159 807.071L866.252 807.767L908.656 741.131Z" fill="#006FB6" fill-opacity="0.6"/>
<path d="M768.434 692.868L754.034 666.154L723.448 664.764L707.261 690.187L721.66 716.9L752.247 718.291L768.434 692.868ZM752.247 668.935L765.057 692.868L750.658 715.51L723.348 714.318L710.438 690.485L724.937 667.842L752.247 668.935Z" fill="#006FB6" fill-opacity="0.6"/>
<path d="M870.621 686.214L870.522 684.526L766.547 691.378L766.646 692.967L870.621 686.214Z" fill="#006FB6" fill-opacity="0.6"/>
<path d="M151.933 173.291L137.931 241.913L190.365 288.786L256.802 267.236L270.804 198.615L218.37 151.742L151.933 173.291ZM144.982 239.529L157.494 178.257L216.682 158.892L263.555 200.899L251.042 262.172L191.855 281.437L144.982 239.529Z" fill="#006FB6" fill-opacity="0.6"/>
<path d="M304.569 306.661L298.71 325.927L312.315 340.624L331.878 336.156L337.737 316.989L324.132 302.193L304.569 306.661ZM300.696 325.331L306.058 308.35L323.437 304.278L335.751 317.585L330.488 334.666L313.109 338.638L300.696 325.331Z" fill="#006FB6" fill-opacity="0.6"/>
<path d="M253.624 262.569L252.83 263.363L304.668 308.35L305.363 307.456L253.624 262.569Z" fill="#006FB6" fill-opacity="0.6"/>
<path d="M291.56 402.294L271.499 404.38L263.058 422.553L274.677 438.641L294.737 436.655L303.179 418.482L291.56 402.294ZM272.592 405.969L290.666 404.181L300.994 418.581L293.446 434.768L275.472 436.555L265.044 422.156L272.592 405.969Z" fill="#006FB6" fill-opacity="0.6"/>
<path d="M312.911 338.539L311.719 338.142L290.07 402.99L291.162 403.387L312.911 338.539Z" fill="#006FB6" fill-opacity="0.6"/>
<path d="M383.121 308.25L391.364 319.869L405.565 318.777L411.622 306.165L403.479 294.546L389.179 295.638L383.121 308.25ZM391.959 318.479L384.71 308.151L390.073 296.929L402.784 295.936L410.133 306.165L404.77 317.585L391.959 318.479Z" fill="#006FB6" fill-opacity="0.6"/>
<path d="M336.149 317.089L336.347 317.784L384.114 308.846L384.015 308.052L336.149 317.089Z" fill="#006FB6" fill-opacity="0.6"/>
<path d="M366.139 366.047L361.571 379.354L371.005 390.079L384.909 387.299L389.377 373.992L380.043 363.266L366.139 366.047ZM363.061 379.156L367.033 367.139L379.447 364.657L387.788 374.29L383.816 386.306L371.403 388.789L363.061 379.156Z" fill="#006FB6" fill-opacity="0.6"/>
<path d="M330.885 333.971L330.488 334.567L366.239 367.14L366.735 366.444L330.885 333.971Z" fill="#006FB6" fill-opacity="0.6"/>
<path d="M31.5727 85.1065L41.6028 40.4181L7.93751 9.13629L-35.7578 22.4435L-45.7878 67.0325L-12.1225 98.3144L31.5727 85.1065ZM36.9353 41.8084L27.8983 81.73L-11.1295 93.6469L-41.1203 65.6422L-32.1827 25.7206L6.74587 13.8037L36.9353 41.8084Z" fill="#006FB6" fill-opacity="0.6"/>
<path d="M155.21 176.966L156.7 174.88L30.9768 81.5314L29.2886 83.5175L155.21 176.966Z" fill="#006FB6" fill-opacity="0.6"/>
<path d="M378.95 143.996L407.352 167.83L442.308 155.714L448.863 119.765L420.461 96.1296L385.504 108.245L378.95 143.996ZM407.948 163.957L382.625 142.804L388.583 110.728L419.865 99.9033L445.287 121.155L439.329 153.132L407.948 163.957Z" fill="#006FB6" fill-opacity="0.6"/>
<path d="M266.733 197.423L267.626 199.211L381.731 144.989L380.837 143.102L266.733 197.423Z" fill="#006FB6" fill-opacity="0.6"/>
<path d="M167.823 356.414L144.684 358.4L134.555 379.056L147.663 397.925L170.702 395.939L180.832 375.283L167.823 356.414ZM146.074 360.387L166.829 358.698L178.449 375.283L169.411 393.853L148.656 395.541L137.037 378.957L146.074 360.387Z" fill="#006FB6" fill-opacity="0.6"/>
<path d="M193.643 283.821L192.451 283.423L166.134 357.308L167.326 357.606L193.643 283.821Z" fill="#006FB6" fill-opacity="0.6"/>
<path d="M46.9653 267.832L27.1038 244.991L-2.78772 250.255L-12.8177 278.458L7.14302 301.299L37.0346 295.837L46.9653 267.832ZM25.9121 247.971L43.6881 268.428L34.8498 293.553L8.03681 298.419L-9.73924 277.962L-0.70223 252.837L25.9121 247.971Z" fill="#006FB6" fill-opacity="0.6"/>
<path d="M144.584 238.934L144.088 237.345L44.7806 266.64L45.2771 268.428L144.584 238.934Z" fill="#006FB6" fill-opacity="0.6"/>
<path d="M246.176 62.9609L276.365 59.2865L288.481 31.5798L270.407 7.74597L240.218 11.5197L228.102 39.1271L246.176 62.9609ZM274.379 56.7045L247.467 60.081L231.379 38.7299L242.204 14.0023L269.215 10.8245L285.303 32.0763L274.379 56.7045Z" fill="#006FB6" fill-opacity="0.6"/>
<path d="M216.086 159.488L217.873 159.984L248.261 61.8685L246.673 61.2726L216.086 159.488Z" fill="#006FB6" fill-opacity="0.6"/>
<path d="M-37.3466 178.257L-22.6491 195.338L-0.205557 191.465L7.44107 170.511L-7.25642 153.331L-29.6006 157.204L-37.3466 178.257ZM-21.7553 193.054L-34.8639 177.76L-28.111 159.091L-8.05087 155.615L5.05772 170.809L-1.79451 189.677L-21.7553 193.054Z" fill="#006FB6" fill-opacity="0.6"/>
<g opacity="0.38">
<path d="M484.117 33.1687L459.389 30.1895L444.294 49.753L453.828 72.2958L478.555 75.275L493.749 55.6122L484.117 33.1687ZM460.382 32.6721L482.528 35.3534L490.969 55.3142L477.364 72.7923L455.317 70.111L446.777 50.0509L460.382 32.6721Z" fill="#006FB6" fill-opacity="0.6"/>
<path d="M502.786 0L482.23 33.7645L483.421 34.3604L504.475 0H502.786Z" fill="#006FB6" fill-opacity="0.6"/>
<path d="M583.722 9.93073L574.685 24.8268L582.928 40.1202L600.406 40.5174L609.443 25.6213L601.101 10.328L583.722 9.93073ZM576.473 24.8268L584.616 11.5196L600.108 11.9169L607.556 25.6213L599.413 38.9285L583.921 38.5313L576.473 24.8268Z" fill="#006FB6" fill-opacity="0.6"/>
</g>
<g opacity="0.38">
<path d="M780.053 56.9031L695.542 19.1663L619.87 72.1965L628.51 162.765L712.921 200.502L788.792 147.67L780.053 56.9031ZM696.436 28.9978L772.009 62.7623L779.656 143.599L711.928 190.77L636.454 157.005L628.708 76.2681L696.436 28.9978Z" fill="#006FB6" fill-opacity="0.6"/>
<path d="M563.265 211.723L540.126 198.714L517.087 211.723V237.941L540.126 250.851L563.265 237.941V211.723ZM540.225 201.594L560.881 213.213V236.451L540.225 248.07L519.768 236.451V213.213L540.225 201.594Z" fill="#006FB6" fill-opacity="0.6"/>
<path d="M635.163 159.984L634.27 158.793L561.179 211.525L562.073 212.617L635.163 159.984Z" fill="#006FB6" fill-opacity="0.6"/>
<path d="M443.699 167.432L446.976 141.215L425.923 125.326L401.692 135.356L398.414 161.474L419.468 177.462L443.699 167.432ZM444.294 142.407L441.514 165.744L419.865 174.682L401.096 160.481L403.976 137.144L425.525 128.206L444.294 142.407Z" fill="#006FB6" fill-opacity="0.6"/>
<path d="M519.768 213.014L520.463 211.823L443.202 165.347L442.308 166.638L519.768 213.014Z" fill="#006FB6" fill-opacity="0.6"/>
<path d="M538.438 311.031L521.059 318.082L518.278 336.453L532.976 347.874L550.255 340.922L553.036 322.55L538.438 311.031ZM522.549 319.273L538.14 312.918L551.248 323.146L548.766 339.532L533.274 345.788L520.165 335.659L522.549 319.273Z" fill="#006FB6" fill-opacity="0.6"/>
<path d="M540.722 248.864H539.729L537.345 312.123L538.338 312.223L540.722 248.864Z" fill="#006FB6" fill-opacity="0.6"/>
<path d="M468.724 272.599L452.636 262.966L436.151 271.804L435.655 290.375L451.643 299.908L468.128 291.169L468.724 272.599ZM452.736 264.952L467.036 273.592L466.539 289.978L451.742 297.823L437.442 289.183L437.939 272.797L452.736 264.952Z" fill="#006FB6" fill-opacity="0.6"/>
<path d="M520.463 237.345L519.768 236.451L467.234 272.301L467.83 273.195L520.463 237.345Z" fill="#006FB6" fill-opacity="0.6"/>
<path d="M845.993 0L774.492 60.1803L776.676 62.7623L851.157 0H845.993Z" fill="#006FB6" fill-opacity="0.6"/>
<path d="M751.552 353.435L712.722 382.532L718.184 430.597L762.674 449.465L801.503 420.368L796.041 372.403L751.552 353.435ZM717.489 384.518L752.147 358.599L791.87 375.382L796.736 418.283L761.979 444.301L722.355 427.519L717.489 384.518Z" fill="#006FB6" fill-opacity="0.6"/>
<path d="M715.503 195.735L712.822 196.331L749.665 356.812L752.346 356.116L715.503 195.735Z" fill="#006FB6" fill-opacity="0.6"/>
<path d="M539.431 0L536.352 21.8476L511.327 31.5798L490.174 14.7968L492.26 0H489.38L487.096 15.9885L510.93 34.8569L538.934 23.7345L542.311 0H539.431Z" fill="#006FB6" fill-opacity="0.6"/>
<path d="M625.133 77.7577L626.027 76.2681L538.239 21.4504L537.445 22.8407L625.133 77.7577Z" fill="#006FB6" fill-opacity="0.6"/>
<path d="M923.254 271.606L959.502 255.617L959.7 253.234V213.511L931.199 192.756L895.051 208.645L891.079 248.07L923.254 271.606ZM898.527 211.227L930.802 196.927L959.502 217.881L956.026 253.135L923.751 267.435L894.952 246.481L898.527 211.227Z" fill="#006FB6" fill-opacity="0.6"/>
<path d="M779.159 142.705L778.166 144.492L895.945 211.823L897.037 209.837L779.159 142.705Z" fill="#006FB6" fill-opacity="0.6"/>
<path d="M502.985 433.576L481.336 481.045L511.625 523.747L563.563 518.782L585.112 471.214L554.824 428.511L502.985 433.576ZM486.897 480.549L506.262 438.144L552.54 433.775L579.651 471.909L560.385 514.412L514.008 518.782L486.897 480.549Z" fill="#006FB6" fill-opacity="0.6"/>
<path d="M591.567 555.426L584.119 568.436L591.567 581.346H606.563L614.011 568.436L606.563 555.426H591.567ZM585.708 568.436L592.362 556.817H605.669L612.323 568.436L605.669 579.856H592.362L585.708 568.436Z" fill="#006FB6" fill-opacity="0.6"/>
<path d="M561.974 515.108L561.279 515.505L591.468 556.618L592.064 556.122L561.974 515.108Z" fill="#006FB6" fill-opacity="0.6"/>
<path d="M566.145 622.757L551.149 620.87L541.914 632.688L547.673 646.392L562.768 648.08L571.904 636.163L566.145 622.757ZM551.844 622.459L565.251 623.949L570.316 636.064L562.172 646.69L548.865 645.2L543.8 632.787L551.844 622.459Z" fill="#006FB6" fill-opacity="0.6"/>
<path d="M592.362 579.856L591.567 579.459L565.052 623.154L565.747 623.452L592.362 579.856Z" fill="#006FB6" fill-opacity="0.6"/>
<path d="M648.47 569.429L652.542 579.161L663.069 580.65L669.524 572.507L665.551 562.577L655.025 561.087L648.47 569.429ZM653.138 578.366L649.563 569.627L655.323 562.279L664.757 563.57L668.332 572.209L662.572 579.657L653.138 578.366Z" fill="#006FB6" fill-opacity="0.6"/>
<path d="M612.819 568.138V568.734L649.066 570.025V569.429L612.819 568.138Z" fill="#006FB6" fill-opacity="0.6"/>
<path d="M626.424 608.655L620.962 617.692L625.928 627.027L636.454 627.126L641.916 618.387L636.852 608.953L626.424 608.655ZM622.055 617.692L626.921 609.648L636.355 609.847L640.824 618.089L635.958 626.034L626.524 625.835L622.055 617.692Z" fill="#006FB6" fill-opacity="0.6"/>
<path d="M606.166 579.558L605.768 579.856L626.325 609.549L626.822 609.152L606.166 579.558Z" fill="#006FB6" fill-opacity="0.6"/>
<path d="M430.292 349.761L445.089 318.876L425.823 290.573L391.86 293.155L377.063 324.04L396.329 352.343L430.292 349.761ZM441.315 319.174L428.207 346.682L397.918 349.066L380.738 323.742L393.846 296.333L424.234 293.95L441.315 319.174Z" fill="#006FB6" fill-opacity="0.6"/>
<path d="M504.773 436.655L506.262 435.463L430.491 346.881L429.001 348.172L504.773 436.655Z" fill="#006FB6" fill-opacity="0.6"/>
<path d="M672.702 449.465L689.485 471.313L716.893 468.135L727.619 443.209L710.935 421.361L683.526 424.44L672.702 449.465ZM690.577 468.731L675.78 449.068L685.413 426.823L710.041 424.142L724.937 443.705L715.304 465.95L690.577 468.731Z" fill="#006FB6" fill-opacity="0.6"/>
<path d="M582.431 469.823L582.729 471.412L674.588 450.756L674.29 449.068L582.431 469.823Z" fill="#006FB6" fill-opacity="0.6"/>
<path d="M483.918 569.131L466.837 566.648L456.013 580.055L462.368 595.944L479.549 598.228L490.274 584.821L483.918 569.131ZM467.532 568.436L482.826 570.62L488.586 584.623L478.854 596.639L463.56 594.553L457.9 580.452L467.532 568.436Z" fill="#006FB6" fill-opacity="0.6"/>
<path d="M514.902 520.768L514.008 520.172L482.627 569.528L483.422 570.025L514.902 520.768Z" fill="#006FB6" fill-opacity="0.6"/>
<path d="M411.026 484.918L400.301 465.156L377.758 464.063L365.742 482.932L376.467 502.793L399.11 503.786L411.026 484.918ZM399.01 467.142L408.544 484.819L397.819 501.502L377.659 500.708L368.225 483.031L378.851 466.248L399.01 467.142Z" fill="#006FB6" fill-opacity="0.6"/>
<path d="M486.699 480.052L486.599 478.761L409.537 483.826L409.636 485.017L486.699 480.052Z" fill="#006FB6" fill-opacity="0.6"/>
<path d="M589.879 368.927L612.521 371.012L625.828 352.939L616.692 332.58L594.149 330.396L580.743 348.569L589.879 368.927ZM611.429 368.927L591.269 366.842L583.126 348.768L595.142 332.58L615.302 334.567L623.445 352.641L611.429 368.927Z" fill="#006FB6" fill-opacity="0.6"/>
<path d="M551.944 433.973L553.135 434.669L591.667 368.331L590.574 367.735L551.944 433.973Z" fill="#006FB6" fill-opacity="0.6"/>
<path d="M388.682 0L384.511 20.5566L347.271 32.7715L317.975 6.55429L319.366 0H315.095L313.507 7.94459L346.377 37.3396L388.086 23.7345L392.953 0H388.682Z" fill="#006FB6" fill-opacity="0.6"/>
<path d="M417.978 48.6606L414.403 60.6768L422.943 70.0117L435.257 67.3304L438.832 55.2149L430.292 45.9793L417.978 48.6606ZM415.694 60.3789L418.971 49.6537L429.895 47.171L437.541 55.4135L434.264 66.238L423.341 68.6214L415.694 60.3789Z" fill="#006FB6" fill-opacity="0.6"/>
<path d="M386.1 20.9539L385.604 21.4504L418.176 49.6537L418.574 49.0579L386.1 20.9539Z" fill="#006FB6" fill-opacity="0.6"/>
<path d="M409.835 108.642L397.322 109.834L391.959 121.254L399.308 131.384L411.92 130.093L417.283 118.672L409.835 108.642ZM398.017 110.926L409.239 109.933L415.892 118.97L411.126 129.1L399.805 130.291L393.25 121.254L398.017 110.926Z" fill="#006FB6" fill-opacity="0.6"/>
<path d="M423.241 68.6214L422.645 68.5221L409.04 109.139L409.636 109.238L423.241 68.6214Z" fill="#006FB6" fill-opacity="0.6"/>
<path d="M467.433 49.6537L472.597 56.9031L481.535 56.1087L485.408 48.1641L480.244 40.8153L471.306 41.6098L467.433 49.6537ZM472.895 56.0093L468.327 49.4551L471.803 42.4042L479.747 41.8084L484.315 48.2634L480.939 55.3142L472.895 56.0093Z" fill="#006FB6" fill-opacity="0.6"/>
<path d="M437.939 55.1156L438.038 55.5128L468.029 49.9516L467.93 49.4551L437.939 55.1156Z" fill="#006FB6" fill-opacity="0.6"/>
<path d="M456.609 85.8016L453.828 94.1435L459.687 100.896L468.525 99.2081L471.306 90.767L465.447 84.0141L456.609 85.8016ZM454.821 94.1435L457.403 86.4968L465.149 85.0072L470.412 90.9656L467.93 98.4137L460.184 99.9033L454.821 94.1435Z" fill="#006FB6" fill-opacity="0.6"/>
<path d="M434.662 65.6422L434.264 66.1387L456.708 86.4968L457.105 86.1989L434.662 65.6422Z" fill="#006FB6" fill-opacity="0.6"/>
<path d="M332.176 79.8432L317.677 81.1342L311.322 94.0442L319.465 105.862L333.865 104.769L340.22 91.7601L332.176 79.8432ZM318.67 82.3259L331.58 81.2335L338.929 91.7601L333.169 103.28L320.259 104.372L312.911 93.9449L318.67 82.3259Z" fill="#006FB6" fill-opacity="0.6"/>
<path d="M348.463 34.1618L347.668 33.9631L331.282 80.439L331.978 80.5383L348.463 34.1618Z" fill="#006FB6" fill-opacity="0.6"/>
<path d="M256.405 24.1318L243.892 9.83148L225.123 13.1086L218.866 30.8847L231.379 45.1849L250.148 41.7092L256.405 24.1318ZM243.296 11.8176L254.518 24.529L248.857 40.2196L232.074 43.2981L220.952 30.4874L226.513 14.6975L243.296 11.8176Z" fill="#006FB6" fill-opacity="0.6"/>
<path d="M317.677 6.15708L317.28 5.164L255.014 23.4366L255.312 24.529L317.677 6.15708Z" fill="#006FB6" fill-opacity="0.6"/>
<path d="M213.703 211.028L207.744 239.827L229.79 259.59L257.696 250.453L263.555 221.555L241.509 201.991L213.703 211.028ZM210.823 238.834L216.086 213.213L240.913 205.169L260.576 222.747L255.312 248.368L230.485 256.412L210.823 238.834Z" fill="#006FB6" fill-opacity="0.6"/>
<path d="M277.756 266.938L275.372 275.082L281.033 281.338L289.276 279.451L291.758 271.407L285.998 265.25L277.756 266.938ZM276.167 274.883L278.352 267.633L285.7 265.945L290.864 271.506L288.68 278.756L281.331 280.345L276.167 274.883Z" fill="#006FB6" fill-opacity="0.6"/>
<path d="M256.405 248.467L256.008 248.864L277.756 267.733L278.054 267.435L256.405 248.467Z" fill="#006FB6" fill-opacity="0.6"/>
<path d="M272.294 307.059L263.853 307.952L260.377 315.5L265.243 322.253L273.684 321.359L277.259 313.712L272.294 307.059ZM264.349 308.647L271.897 307.853L276.266 313.911L273.188 320.763L265.541 321.458L261.171 315.4L264.349 308.647Z" fill="#006FB6" fill-opacity="0.6"/>
<path d="M281.232 280.345L280.735 280.146L271.698 307.456L272.095 307.555L281.232 280.345Z" fill="#006FB6" fill-opacity="0.6"/>
<path d="M310.726 267.634L314.102 272.5L320.16 272.102L322.643 266.74L319.266 261.774L313.209 262.271L310.726 267.634ZM314.4 271.904L311.322 267.534L313.606 262.767L318.968 262.37L322.047 266.74L319.763 271.507L314.4 271.904Z" fill="#006FB6" fill-opacity="0.6"/>
<path d="M290.964 271.308L291.063 271.606L311.123 267.832V267.634L290.964 271.308Z" fill="#006FB6" fill-opacity="0.6"/>
<path d="M303.476 291.964L301.689 297.624L305.562 301.994L311.421 300.802L313.308 295.241L309.336 290.772L303.476 291.964ZM302.285 297.525L303.973 292.361L309.137 291.467L312.712 295.44L311.024 300.405L305.761 301.398L302.285 297.525Z" fill="#006FB6" fill-opacity="0.6"/>
<path d="M288.779 278.458L288.58 278.756L303.576 292.262L303.874 292.162L288.779 278.458Z" fill="#006FB6" fill-opacity="0.6"/>
<path d="M163.155 173.987L167.326 155.218L153.224 142.208L134.853 147.769L130.682 166.439L144.783 179.647L163.155 173.987ZM165.439 155.813L161.666 172.497L145.28 177.462L132.767 165.645L136.541 149.06L152.827 143.996L165.439 155.813Z" fill="#006FB6" fill-opacity="0.6"/>
<path d="M215.093 212.518L215.689 211.624L162.857 172.497L162.261 173.291L215.093 212.518Z" fill="#006FB6" fill-opacity="0.6"/>
<path d="M308.938 198.714L320.855 208.744L335.553 203.58L338.333 188.486L326.317 178.455L311.719 183.619L308.938 198.714ZM321.153 207.155L310.527 198.218L313.01 184.91L326.119 180.342L336.744 189.181L334.262 202.587L321.153 207.155Z" fill="#006FB6" fill-opacity="0.6"/>
<path d="M261.867 221.158L262.264 221.853L310.13 199.111L309.733 198.317L261.867 221.158Z" fill="#006FB6" fill-opacity="0.6"/>
<path d="M220.356 287.892L210.624 288.786L206.354 297.426L211.816 305.37L221.548 304.576L225.719 295.837L220.356 287.892ZM211.22 289.481L219.959 288.786L224.825 295.837L221.051 303.583L212.411 304.278L207.545 297.326L211.22 289.481Z" fill="#006FB6" fill-opacity="0.6"/>
<path d="M231.181 257.405L230.684 257.306L219.661 288.289L220.158 288.488L231.181 257.405Z" fill="#006FB6" fill-opacity="0.6"/>
<path d="M169.61 250.553L161.268 241.118L148.656 243.402L144.485 255.121L152.827 264.654L165.439 262.37L169.61 250.553ZM160.871 242.409L168.319 250.95L164.645 261.576L153.324 263.463L145.876 255.021L149.649 244.396L160.871 242.409Z" fill="#006FB6" fill-opacity="0.6"/>
<path d="M210.624 238.636L210.425 237.941L168.716 250.155L168.915 250.95L210.624 238.636Z" fill="#006FB6" fill-opacity="0.6"/>
<path d="M253.227 164.751L265.938 163.162L271.003 151.444L263.456 141.513L250.744 143.102L245.68 154.622L253.227 164.751ZM265.045 162.07L253.823 163.46L247.07 154.622L251.638 144.194L262.959 142.804L269.712 151.642L265.045 162.07Z" fill="#006FB6" fill-opacity="0.6"/>
<path d="M240.615 205.169L241.31 205.467L254.22 164.254L253.426 164.056L240.615 205.169Z" fill="#006FB6" fill-opacity="0.6"/>
<path d="M75.5659 211.028L69.111 227.811L80.432 241.814L98.2081 239.132L104.663 222.349L93.4413 208.248L75.5659 211.028ZM70.9978 227.414L76.857 212.518L92.6469 209.936L102.677 222.548L96.917 237.444L81.1273 239.827L70.9978 227.414Z" fill="#006FB6" fill-opacity="0.6"/>
<path d="M108.536 251.149L106.252 255.717L109.033 259.987L114.197 259.689L116.481 255.121L113.7 250.751L108.536 251.149ZM106.749 255.617L108.834 251.546L113.402 251.248L115.885 255.121L113.799 259.292L109.231 259.59L106.749 255.617Z" fill="#006FB6" fill-opacity="0.6"/>
<path d="M97.513 237.841L97.3143 238.04L108.536 251.546L108.635 251.347L97.513 237.841Z" fill="#006FB6" fill-opacity="0.6"/>
<path d="M101.187 274.784L96.0233 274.486L93.0441 278.657L95.3281 283.324L100.492 283.622L103.372 279.451L101.187 274.784ZM96.2219 274.883L100.79 275.181L102.875 279.252L100.194 283.125L95.5268 282.828L93.5406 278.756L96.2219 274.883Z" fill="#006FB6" fill-opacity="0.6"/>
<path d="M109.231 259.49L108.933 259.391L100.79 274.883L100.989 275.082L109.231 259.49Z" fill="#006FB6" fill-opacity="0.6"/>
<path d="M128.398 254.823L129.887 258.1L133.561 258.398L135.647 255.419L134.058 252.142L130.384 251.844L128.398 254.823ZM130.185 257.802L128.795 254.823L130.682 252.241L133.959 252.539L135.349 255.518L133.462 258.199L130.185 257.802Z" fill="#006FB6" fill-opacity="0.6"/>
<path d="M116.083 255.021V255.319L128.497 255.021V254.823L116.083 255.021Z" fill="#006FB6" fill-opacity="0.6"/>
<path d="M121.545 268.726L119.857 271.904L121.744 275.082L125.418 274.883L127.106 271.606L125.219 268.627H121.545V268.726ZM120.254 271.904L121.843 269.024L125.021 268.924L126.709 271.705L125.219 274.585L121.942 274.784L120.254 271.904Z" fill="#006FB6" fill-opacity="0.6"/>
<path d="M113.998 259.093L113.899 259.292L121.545 268.924H121.645L113.998 259.093Z" fill="#006FB6" fill-opacity="0.6"/>
<path d="M48.9517 183.52L53.3212 172.596L46.171 163.261L34.5521 164.751L30.0833 175.576L37.2333 185.01L48.9517 183.52ZM52.1295 172.795L48.1572 182.527L37.7299 183.917L31.3742 175.675L35.3465 165.744L45.6745 164.453L52.1295 172.795Z" fill="#006FB6" fill-opacity="0.6"/>
<path d="M76.2611 212.021L76.857 211.624L48.9516 182.626L48.3557 183.024L76.2611 212.021Z" fill="#006FB6" fill-opacity="0.6"/>
<path d="M134.356 213.114L140.513 220.165L149.947 218.576L153.125 209.737L146.968 202.587L137.534 204.176L134.356 213.114ZM140.811 219.37L135.25 213.014L138.13 205.07L146.571 203.68L152.033 210.035L149.252 217.98L140.811 219.37Z" fill="#006FB6" fill-opacity="0.6"/>
<path d="M103.67 221.753L103.769 222.349L134.952 213.412L134.753 213.014L103.67 221.753Z" fill="#006FB6" fill-opacity="0.6"/>
<path d="M71.7924 257.802L65.8339 257.405L62.3582 262.271L64.9401 267.534L70.7993 267.931L74.275 263.165L71.7924 257.802ZM66.1318 258.1L71.3951 258.497L73.5798 263.165L70.5013 267.435L65.238 267.137L63.0533 262.271L66.1318 258.1Z" fill="#006FB6" fill-opacity="0.6"/>
<path d="M81.4251 240.721L81.1273 240.523L71.2958 258.1L71.5937 258.199L81.4251 240.721Z" fill="#006FB6" fill-opacity="0.6"/>
<path d="M44.9793 230.393L41.007 223.839H33.1617L29.3881 230.592L33.4596 237.245L41.2056 237.047L44.9793 230.393ZM40.5105 224.534L44.0855 230.393L40.8084 236.451H33.8569L30.1825 230.592L33.4596 224.633L40.5105 224.534Z" fill="#006FB6" fill-opacity="0.6"/>
<path d="M70.9979 227.215L70.7993 226.818L44.4828 230.095L44.5821 230.493L70.9979 227.215Z" fill="#006FB6" fill-opacity="0.6"/>
<path d="M104.166 186.996L111.913 187.294L116.183 180.839L112.608 173.987L104.862 173.689L100.591 180.144L104.166 186.996ZM111.615 186.499L104.663 186.301L101.485 180.342L105.259 174.483L112.31 174.682L115.488 180.739L111.615 186.499Z" fill="#006FB6" fill-opacity="0.6"/>
<path d="M92.4481 210.234L92.8454 210.333L104.762 186.698L104.365 186.499L92.4481 210.234Z" fill="#006FB6" fill-opacity="0.6"/>
</g>
<g opacity="0.38">
<path d="M39.2195 0L49.5475 14.4989L37.3327 41.6098L7.93765 44.1918L-9.24252 19.9608L-0.106228 0H-3.4827L-12.8176 20.4573L6.44804 47.4689L39.4181 44.2911L53.1225 14.201L42.9932 0H39.2195Z" fill="#006FB6" fill-opacity="0.6"/>
<path d="M57.2936 67.6284L52.5269 75.8709L57.2936 84.0141H66.7278L71.4946 75.8709L66.7278 67.6284H57.2936ZM53.5199 75.9702L57.7901 68.5221H66.2313L70.4022 75.8709L66.2313 83.1203H57.7901L53.5199 75.9702Z" fill="#006FB6" fill-opacity="0.6"/>
<path d="M38.4251 42.007L38.028 42.3049L57.0949 68.5221L57.5915 68.1249L38.4251 42.007Z" fill="#006FB6" fill-opacity="0.6"/>
<path d="M41.1063 110.331L31.5728 109.139L25.7136 116.686L29.2887 125.326L38.8222 126.518L44.6813 118.97L41.1063 110.331ZM32.0693 110.132L40.5105 111.224L43.7876 118.871L38.6236 125.525L30.1825 124.532L26.9053 116.786L32.0693 110.132Z" fill="#006FB6" fill-opacity="0.6"/>
<path d="M57.6906 83.2196L57.2934 83.021L40.4111 110.628L40.8084 110.926L57.6906 83.2196Z" fill="#006FB6" fill-opacity="0.6"/>
<path d="M93.3421 76.566L95.9241 82.8224L102.578 83.7162L106.749 78.5522L104.266 72.2958L97.6124 71.3027L93.3421 76.566ZM96.3213 82.1272L94.0373 76.6653L97.7117 71.9979L103.67 72.8917L105.954 78.3536L102.28 83.021L96.3213 82.1272Z" fill="#006FB6" fill-opacity="0.6"/>
<path d="M70.7994 75.7715V76.0695L93.7394 76.8639V76.566L70.7994 75.7715Z" fill="#006FB6" fill-opacity="0.6"/>
<path d="M79.4389 101.492L75.8639 107.252L79.0417 113.111L85.7946 113.31L89.3697 107.451L86.0926 101.592L79.4389 101.492ZM76.559 107.153L79.6376 101.989L85.5961 102.187L88.4759 107.351L85.3974 112.515L79.4389 112.317L76.559 107.153Z" fill="#006FB6" fill-opacity="0.6"/>
<path d="M66.5291 83.021L66.2311 83.2196L79.3397 101.989L79.6377 101.691L66.5291 83.021Z" fill="#006FB6" fill-opacity="0.6"/>
<path d="M140.414 0L135.647 10.8245L120.056 12.612L110.622 0.198615V0H108.933L108.735 0.39723L119.361 14.3003L136.839 12.3141L142.201 0H140.414Z" fill="#006FB6" fill-opacity="0.6"/>
<path d="M51.4345 13.3072L51.6331 14.3003L110.026 1.09238L109.728 0.198608L51.4345 13.3072Z" fill="#006FB6" fill-opacity="0.6"/>
<path d="M8.53348 45.5821L8.03694 45.2842L-11.9239 76.566L-11.4274 76.8639L8.53348 45.5821Z" fill="#006FB6" fill-opacity="0.6"/>
</g>
</g>
</svg>
